<svg xmlns="http://www.w3.org/2000/svg" viewBox="0 0 71 26"><path d="M30.7 19.8c-2.2 0-3.9-1.8-3.9-3.9s1.8-3.9 3.9-3.9 3.9 1.8 3.9 3.9c.1 2.1-1.7 3.9-3.9 3.9m0-13.2c-5.1 0-9.2 4.1-9.2 9.2s4.1 9.2 9.2 9.2 9.2-4.1 9.2-9.2-4.1-9.2-9.2-9.2M65.288.9v14.9c0 2.2-1.7 4-3.9 4s-4-1.7-4-3.9c0-1.9 1.3-3.6 3.2-3.9.4-.1.7-.4.7-.9V7.5c0-.5-.4-.9-.9-.9h-.1c-4.6.6-8.2 4.6-8.1 9.3.1 5 4.1 9 9.1 9.1 5.1.1 9.3-4 9.3-9.1V.9c0-.5-.4-.9-.9-.9h-3.5c-.5 0-.9.4-.9.9M0 .9v14.8C0 20.8 4.1 25 9.2 25s9.2-4.1 9.2-9.2c0-4.7-3.5-8.7-8.2-9.2-.5 0-.9.4-1 .8V11c0 .4.3.8.7.9 2.1.4 3.6 2.4 3.2 4.6-.4 2.1-2.4 3.6-4.6 3.2-1.9-.3-3.2-2-3.2-3.9V.9c0-.5-.4-.9-.9-.9H.9C.4 0 0 .4 0 .9M44.3 0h3.5c.5 0 .9.4.9.9v22.8c0 .5-.4.9-.9.9h-3.5c-.5 0-.9-.4-.9-.9V.9c0-.5.4-.9.9-.9"/></svg>
