<svg width="221" height="34" viewBox="0 0 221 34" xmlns="http://www.w3.org/2000/svg">
    <defs>
        <linearGradient x1="22.496%" y1="0%" x2="76.726%" y2="98.585%" id="od5dg0dnxa">
            <stop stop-color="#B8FF58" offset="0%"/>
            <stop stop-color="#00B9FF" offset="100%"/>
        </linearGradient>
    </defs>
    <g fill="none" fill-rule="evenodd">
        <path d="M37.196 29.362h-4.443V4.316h4.443v9.01a10.394 10.394 0 0 1 2.578-1.563c.966-.414 2.014-.62 3.143-.62 1.055 0 1.964.156 2.73.47.765.314 1.399.746 1.9 1.299a5.204 5.204 0 0 1 1.111 1.957c.239.753.358 1.581.358 2.485v12.008h-4.442V18.22c0-1.28-.257-2.202-.772-2.766-.514-.565-1.274-.847-2.277-.847-.728 0-1.469.175-2.221.527a7.798 7.798 0 0 0-2.108 1.468v12.761zm32.9-9.072c0 1.48-.231 2.81-.696 3.99-.464 1.18-1.11 2.171-1.938 2.974a8.534 8.534 0 0 1-2.899 1.845c-1.104.426-2.296.64-3.576.64-1.28 0-2.466-.201-3.558-.603a8.138 8.138 0 0 1-2.842-1.75c-.803-.766-1.43-1.713-1.882-2.842-.452-1.13-.678-2.422-.678-3.878 0-1.505.233-2.854.697-4.046.464-1.193 1.11-2.19 1.939-2.993a8.534 8.534 0 0 1 2.898-1.845c1.104-.426 2.296-.64 3.576-.64 1.28 0 2.466.195 3.558.584a7.786 7.786 0 0 1 2.842 1.75c.803.778 1.43 1.732 1.882 2.861.452 1.13.678 2.447.678 3.953zm-4.592.188c0-1.079-.125-2.001-.376-2.767-.251-.765-.584-1.386-.998-1.863a3.857 3.857 0 0 0-1.43-1.054 4.298 4.298 0 0 0-1.676-.339c-.577 0-1.129.094-1.656.282a3.295 3.295 0 0 0-1.393.98c-.401.463-.728 1.085-.979 1.862-.25.778-.376 1.745-.376 2.9 0 1.053.126 1.95.376 2.69.251.741.584 1.356.998 1.845.414.49.891.847 1.43 1.073.54.226 1.099.339 1.676.339.552 0 1.098-.1 1.637-.301.54-.201 1.01-.527 1.412-.979.401-.452.728-1.06.979-1.826.25-.765.376-1.713.376-2.842zm12.009 8.884H73.07v-17.88h3.425l.565 2.37a10.673 10.673 0 0 1 2.673-1.976c.953-.489 2.058-.734 3.312-.734 1.255 0 2.31.245 3.163.734a4.627 4.627 0 0 1 1.92 2.09 10.102 10.102 0 0 1 2.823-2.07c1.029-.503 2.158-.754 3.388-.754 1.882 0 3.312.515 4.291 1.544.979 1.029 1.468 2.497 1.468 4.404v12.272h-4.442v-11.67c0-.953-.226-1.706-.677-2.258-.452-.552-1.142-.828-2.07-.828-.729 0-1.456.175-2.184.527a6.211 6.211 0 0 0-1.958 1.505c.025.176.038.333.038.47v12.254h-4.442v-11.67c0-.953-.226-1.706-.678-2.258-.451-.552-1.141-.828-2.07-.828-.728 0-1.45.194-2.165.583a6.838 6.838 0 0 0-1.938 1.6v12.573zm42.237-7.943h-12.16v.15c0 1.632.509 2.85 1.525 3.652 1.017.803 2.353 1.205 4.01 1.205.978 0 1.85-.088 2.616-.264.765-.175 1.5-.414 2.202-.715l.866 3.125c-.728.326-1.594.602-2.598.828-1.004.226-2.17.339-3.5.339a12.93 12.93 0 0 1-3.746-.527 8.353 8.353 0 0 1-3.068-1.657c-.879-.753-1.575-1.706-2.09-2.86-.514-1.155-.771-2.535-.771-4.142 0-1.405.213-2.685.64-3.84.426-1.154 1.029-2.145 1.807-2.973a7.945 7.945 0 0 1 2.823-1.92c1.104-.452 2.321-.678 3.651-.678 2.385 0 4.28.728 5.685 2.184 1.405 1.455 2.108 3.476 2.108 6.06v2.033zm-4.555-3.087c0-.527-.063-1.035-.188-1.524a3.743 3.743 0 0 0-.603-1.299 2.85 2.85 0 0 0-1.073-.885c-.439-.213-.96-.32-1.562-.32-1.13 0-2.058.377-2.786 1.13-.727.753-1.167 1.744-1.317 2.974l7.529-.076zm5.308-6.85h4.668l2.522 10.088.677 4.442h.15l.791-4.442 2.523-10.089h4.705l2.522 10.089.79 4.442h.151l.791-4.442 2.485-10.089h4.517l-5.12 17.881h-5.157l-2.56-10.089-.79-4.329-.866 4.33-2.56 10.088h-5.082l-5.157-17.88zm29.626 17.88v-17.88h4.442v17.88h-4.442zm2.22-21.984c-.777 0-1.386-.226-1.825-.678-.44-.451-.659-1.016-.659-1.694 0-.652.226-1.21.678-1.675.452-.464 1.054-.696 1.807-.696.728 0 1.317.226 1.77.677.45.452.677 1.017.677 1.694 0 .678-.226 1.243-.678 1.694-.452.452-1.041.678-1.77.678zm18.898 6.776-8.696 11.97h8.885v3.238h-14.004v-2.785l8.733-11.858h-8.168V11.48h13.25v2.673zm2.899-1.092a17.486 17.486 0 0 1 3.35-1.412c1.13-.338 2.372-.508 3.727-.508 1.054 0 2.008.12 2.861.358a5.852 5.852 0 0 1 2.221 1.148c.628.527 1.11 1.211 1.45 2.052.338.84.508 1.863.508 3.068v11.594h-3.501l-.452-1.882h-.113c-1.28 1.506-3.1 2.259-5.458 2.259-1.883 0-3.35-.496-4.405-1.487-1.054-.992-1.58-2.278-1.58-3.859 0-1.004.212-1.87.64-2.597a5.35 5.35 0 0 1 1.75-1.807c.74-.477 1.625-.835 2.653-1.073a14.83 14.83 0 0 1 3.35-.358h2.636v-1.242c0-.979-.289-1.675-.866-2.09-.577-.413-1.355-.62-2.334-.62-.703 0-1.45.113-2.24.338-.79.226-1.662.615-2.616 1.167l-1.581-3.049zm9.675 8.32-2.033.075c-1.657.05-2.811.332-3.463.847-.653.514-.98 1.135-.98 1.863 0 .929.277 1.556.829 1.882.552.327 1.192.49 1.92.49s1.424-.182 2.09-.546a4.535 4.535 0 0 0 1.637-1.525v-3.086zm36.778-17.254v25.234h-3.312l-.49-1.957h-.15a7.113 7.113 0 0 1-2.109 1.675c-.828.439-1.894.659-3.2.659-1.053 0-2.057-.201-3.01-.603a7.017 7.017 0 0 1-2.504-1.788c-.715-.79-1.28-1.763-1.694-2.917-.414-1.155-.621-2.485-.621-3.99 0-1.406.182-2.68.545-3.821.364-1.142.898-2.121 1.6-2.937a7.039 7.039 0 0 1 2.579-1.882c1.016-.44 2.165-.659 3.444-.659.879 0 1.713.132 2.504.396.79.263 1.45.633 1.976 1.11v-8.52h4.442zm-19.198 7.014c.602 0 1.129.063 1.58.189.452.125.829.263 1.13.414l-.753 3.613a4.911 4.911 0 0 0-1.016-.395c-.402-.113-.891-.17-1.468-.17-1.28 0-2.36.44-3.238 1.318-.878.879-1.317 2.272-1.317 4.179v9.072h-4.405v-17.88h3.426l.564 3.35c.427-1.03 1.105-1.902 2.033-2.617.929-.715 2.083-1.073 3.464-1.073zm11.33 3.275c-.627 0-1.223.107-1.788.32a3.914 3.914 0 0 0-1.505 1.036c-.44.476-.79 1.091-1.054 1.844-.264.753-.396 1.656-.396 2.71 0 1.055.12 1.97.358 2.749.238.778.558 1.411.96 1.9.401.49.872.854 1.412 1.092.54.239 1.11.358 1.712.358.829 0 1.556-.195 2.184-.584a4.84 4.84 0 0 0 1.543-1.524v-8.244a4.988 4.988 0 0 0-1.506-1.205 4.087 4.087 0 0 0-1.92-.452z" fill="#111828"/>
        <path d="M22.59 0c1.57 0 2.45 1.809 1.48 3.044l-6.386 8.139h4.905c1.635 0 2.486 1.935 1.402 3.139l-.033.036-16.872 17.86a2.497 2.497 0 0 1-4.175-2.531l3.583-10.363H1.885c-1.434 0-2.336-1.537-1.651-2.785l.021-.038L7.527 3.906A7.811 7.811 0 0 1 14.292 0h8.297zm-3.87 3.764h-4.428a4.047 4.047 0 0 0-3.505 2.024L5.145 15.56h3.992c1.28 0 2.183 1.25 1.791 2.46l-.012.037-2.523 7.295 9.83-10.405h-4.408c-1.554 0-2.432-1.772-1.51-3.006l.03-.038 6.385-8.139z" fill="url(#od5dg0dnxa)" fill-rule="nonzero" transform="translate(0 .564)"/>
    </g>
</svg>
