<svg xmlns="http://www.w3.org/2000/svg" xml:space="preserve" width="121" height="50" class="c-svg c-svg--header" style="enable-background:new 0 0 70 19" viewBox="0 0 70 19"><path d="M61.191 3.69c-8.001-.596-10.337 3.63-10.929 7.653-1.053 7.153 4.98 7.483 4.98 7.483s3.465.534 6.219-.266c3.503-1.018 5.358-3.763 5.836-7.217.664-4.804-1.171-7.286-6.106-7.653m.777 7.652c-.358 2.607-1.31 5.72-3.956 5.743-2.618-.055-2.78-3.11-2.418-5.743.362-2.635 1.303-5.77 4.014-5.902 2.826-.055 2.72 3.292 2.36 5.902M11.221 3.897l-5.58-.008-2.172 14.728h5.576l1.901-12.85c.168-.002.388-.052.695-.114 4.985-.91 4.966 1.257 4.79 2.459l-1.542 10.505h5.578l1.568-10.576c.234-1.831-.595-5.451-10.814-4.144M24.704 8.701l-1.486 9.933h5.577l1.488-9.933zM31.005 3.624h-5.581l-.509 3.451h5.581zM44.891 10.128c1.061-.293 2.462-.674 2.721-2.502l.608-3.737h-5.605l-.516 3.327s-.328 2.175-3.227 1.954L40.206 0h-5.58l-2.748 18.617h5.604l1.019-6.732c.195-.012.236-.019.501-.057 4.717-.721 3.935 2.449 3.935 2.449l-.647 4.34 5.608-.002.429-3.157c.532-3.518-1.22-4.871-3.436-5.33" style="fill:#fff"/></svg>