<svg viewBox="0 0 96 29" fill="none" xmlns="http://www.w3.org/2000/svg">
<g clip-path="url(#clip0_175_101)">
<path fill-rule="evenodd" clip-rule="evenodd" d="M12.78 28.2403H0.63C0.28 28.2403 0 27.9603 0 27.6103V25.5103C0 25.1603 0.28 24.8803 0.63 24.8803H9.43C9.78 24.8803 10.06 24.6003 10.06 24.2503V18.8003C10.06 18.4503 9.78 18.1703 9.43 18.1703H0.63C0.28 18.1703 0 17.8903 0 17.5403V5.41027C0 5.06027 0.28 4.78027 0.63 4.78027H12.78C13.13 4.78027 13.41 5.06027 13.41 5.41027V7.51027C13.41 7.86027 13.13 8.14027 12.78 8.14027H3.98C3.63 8.14027 3.35 8.42027 3.35 8.77027V14.2203C3.35 14.5703 3.63 14.8503 3.98 14.8503H12.78C13.13 14.8503 13.41 15.1303 13.41 15.4803V27.6303C13.41 27.9803 13.13 28.2603 12.78 28.2603" fill="#111111"></path>
<path fill-rule="evenodd" clip-rule="evenodd" d="M26.39 18.8198V24.2698C26.39 24.6198 26.11 24.8998 25.76 24.8998H20.31C19.96 24.8998 19.68 24.6198 19.68 24.2698V18.8198C19.68 18.4698 19.96 18.1898 20.31 18.1898H25.76C26.11 18.1898 26.39 18.4698 26.39 18.8198ZM16.96 28.2498H29.11C29.46 28.2498 29.74 27.9698 29.74 27.6198V15.4698C29.74 15.1198 29.46 14.8398 29.11 14.8398H16.96C16.61 14.8398 16.33 15.1198 16.33 15.4698V27.6198C16.33 27.9698 16.61 28.2498 16.96 28.2498Z" fill="#111111"></path>
<path fill-rule="evenodd" clip-rule="evenodd" d="M46.07 15.4698V27.6198C46.07 27.9698 45.79 28.2498 45.44 28.2498H43.34C42.99 28.2498 42.71 27.9698 42.71 27.6198V18.8198C42.71 18.4698 42.43 18.1898 42.08 18.1898H36.63C36.28 18.1898 36 18.4698 36 18.8198V27.6198C36 27.9698 35.72 28.2498 35.37 28.2498H33.27C32.92 28.2498 32.64 27.9698 32.64 27.6198V15.4698C32.64 15.1198 32.92 14.8398 33.27 14.8398H45.42C45.77 14.8398 46.05 15.1198 46.05 15.4698" fill="#111111"></path>
<path fill-rule="evenodd" clip-rule="evenodd" d="M78.74 15.4701V17.5701C78.74 17.9201 78.46 18.2001 78.11 18.2001H69.31C68.96 18.2001 68.68 18.4801 68.68 18.8301V20.9301C68.68 21.2801 68.96 21.5601 69.31 21.5601H78.11C78.46 21.5601 78.74 21.8401 78.74 22.1901V24.2901C78.74 24.6401 78.46 24.9201 78.11 24.9201H69.31C68.96 24.9201 68.68 25.2001 68.68 25.5501V27.6501C68.68 28.0001 68.4 28.2801 68.05 28.2801H65.95C65.6 28.2801 65.32 28.0001 65.32 27.6501V15.5001C65.32 15.1501 65.6 14.8701 65.95 14.8701H78.1C78.45 14.8701 78.73 15.1501 78.73 15.5001" fill="#111111"></path>
<path fill-rule="evenodd" clip-rule="evenodd" d="M59.06 18.8198V24.2698C59.06 24.6198 58.78 24.8998 58.43 24.8998H52.98C52.63 24.8998 52.35 24.6198 52.35 24.2698V18.8198C52.35 18.4698 52.63 18.1898 52.98 18.1898H58.43C58.78 18.1898 59.06 18.4698 59.06 18.8198ZM49.63 28.2498H61.78C62.13 28.2498 62.41 27.9698 62.41 27.6198V15.4698C62.41 15.1198 62.13 14.8398 61.78 14.8398H49.63C49.28 14.8398 49 15.1198 49 15.4698V27.6198C49 27.9698 49.28 28.2498 49.63 28.2498Z" fill="#111111"></path>
<path fill-rule="evenodd" clip-rule="evenodd" d="M95.08 15.4701V17.5701C95.08 17.9201 94.8 18.2001 94.45 18.2001H85.65C85.3 18.2001 85.02 18.4801 85.02 18.8301V20.9301C85.02 21.2801 85.3 21.5601 85.65 21.5601H94.45C94.8 21.5601 95.08 21.8401 95.08 22.1901V24.2901C95.08 24.6401 94.8 24.9201 94.45 24.9201H85.65C85.3 24.9201 85.02 25.2001 85.02 25.5501V27.6501C85.02 28.0001 84.74 28.2801 84.39 28.2801H82.29C81.94 28.2801 81.66 28.0001 81.66 27.6501V15.5001C81.66 15.1501 81.94 14.8701 82.29 14.8701H94.44C94.79 14.8701 95.07 15.1501 95.07 15.5001" fill="#111111"></path>
<path fill-rule="evenodd" clip-rule="evenodd" d="M17.59 6.45984C17.59 7.22984 17.38 7.93984 17.02 8.55984C16.83 8.88984 16.37 8.94984 16.08 8.70984C15.85 8.50984 15.79 8.17984 15.95 7.90984C16.2 7.47984 16.34 6.98984 16.34 6.44984C16.34 5.90984 16.2 5.41984 15.95 4.99984C15.8 4.73984 15.85 4.39984 16.08 4.20984C16.37 3.95984 16.83 4.02984 17.02 4.35984C17.38 4.97984 17.59 5.69984 17.59 6.45984Z" fill="#111111"></path>
<path fill-rule="evenodd" clip-rule="evenodd" d="M20.73 6.45983C20.73 8.00983 20.25 9.42983 19.44 10.6198C19.23 10.9298 18.8 10.9898 18.51 10.7498C18.27 10.5498 18.21 10.1898 18.39 9.92983C19.08 8.94983 19.48 7.74983 19.48 6.45983C19.48 5.16983 19.08 3.97983 18.39 2.98983C18.21 2.72983 18.27 2.37983 18.51 2.16983C18.8 1.92983 19.23 1.98983 19.44 2.29983C20.26 3.48983 20.73 4.89983 20.73 6.44983" fill="#111111"></path>
<path fill-rule="evenodd" clip-rule="evenodd" d="M23.87 6.4599C23.87 8.7999 23.11 10.9399 21.82 12.6799C21.61 12.9699 21.19 12.9999 20.92 12.7699C20.66 12.5499 20.63 12.1799 20.83 11.8999C21.95 10.3599 22.62 8.5099 22.62 6.4499C22.62 4.3899 21.96 2.5399 20.83 0.999901C20.63 0.729901 20.66 0.349901 20.92 0.139901C21.19 -0.0900992 21.61 -0.0600992 21.82 0.229901C23.11 1.9699 23.87 4.1199 23.87 6.4499" fill="#111111"></path>
</g>
<defs>
<clipPath id="clip0_175_101">
<rect width="95.08" height="28.24" fill="white"></rect>
</clipPath>
</defs>
</svg>
