<svg width="60" height="22" viewBox="0 0 60 22" fill="none" xmlns="http://www.w3.org/2000/svg">
<path d="M12.8416 7.66307H4.83257V17.3147C4.83257 18.1016 5.46699 18.7213 6.2465 18.7213H8.6047L8.59978 21.0745H5.79158C3.68175 21.0745 2.01208 19.4024 2.01208 17.3123V7.66307H0.121094V5.31225H2.02929V1.54012L4.83749 0.598319V5.31225H12.8416V7.66307ZM13.776 5.30734H18.9645C21.0621 5.30734 22.7219 6.99422 22.7219 8.94668V21.0647H19.9039V19.9016C19.9039 19.9016 18.9695 21.3131 16.5965 21.3131C13.7686 21.3131 10.9555 19.3704 10.9555 16.1123C10.9555 12.8467 13.776 10.9286 16.6014 10.9286H19.8916V9.01061C19.8916 8.35406 19.4072 7.66307 18.5268 7.66307H13.7809V5.30242L13.776 5.30734ZM19.894 13.3041H16.6039C15.6645 13.3041 13.776 14.0344 13.776 16.1319C13.776 18.4852 15.6842 18.9598 16.599 18.9598C18.9695 18.9598 19.894 17.5582 19.894 16.309V13.3016V13.3041ZM45.817 5.31225C50.2555 5.31225 52.8596 8.74012 52.8596 13.3778C52.8596 18.1532 50.2678 21.5418 45.817 21.5418C41.3121 21.5418 38.7547 18.136 38.7547 13.3778C38.7547 8.72537 41.3121 5.31225 45.817 5.31225ZM45.817 19.1811C48.6326 19.1811 50.0563 16.2057 50.0563 13.4221C50.0563 10.6311 48.6055 7.69258 45.817 7.69258C42.9891 7.69258 41.5629 10.6311 41.5629 13.4368C41.5629 16.2819 43.0137 19.186 45.817 19.186V19.1811ZM37.7834 13.4516V0.598319H34.9555V6.71143C33.817 5.86061 32.6022 5.30979 30.7555 5.30979C26.2383 5.30979 23.6981 8.71061 23.6981 13.4491C23.6981 17.9147 26.2383 21.5393 30.7555 21.5393C35.194 21.5393 37.7735 17.9 37.7834 13.4491V13.4516ZM30.7531 19.1885C27.6867 19.1885 26.5285 16.2278 26.5285 13.4442C26.5285 10.6262 27.9178 7.67537 30.7506 7.67537C33.5932 7.67537 34.9408 10.6262 34.9408 13.4442C34.9408 16.2278 33.5711 19.1885 30.7531 19.1885ZM56.1375 0.590942C54.0547 0.590942 52.3629 2.27783 52.3629 4.36061C52.3629 6.44586 54.0547 8.13274 56.1375 8.13274C58.2203 8.13274 59.9072 6.44586 59.9072 4.36061C59.9072 2.27783 58.2203 0.590942 56.1375 0.590942ZM56.1375 7.18848C54.5735 7.18848 53.3096 5.92209 53.3096 4.36061C53.3096 2.8016 54.5735 1.53275 56.1375 1.53275C57.699 1.53275 58.9654 2.8016 58.9654 4.36061C58.9654 5.92209 57.699 7.18848 56.1375 7.18848Z" fill="#1C1C1C"/>
</svg>
